<svg width="18" height="18" viewBox="0 0 18 18" fill="none" xmlns="http://www.w3.org/2000/svg">
<path d="M3.75019 8.30866V10.22C3.75019 11.6159 3.75019 12.3139 3.93373 12.8788C4.30467 14.0204 5.19974 14.9155 6.34138 15.2864C6.90625 15.4699 7.60423 15.4699 9.00019 15.4699C10.3962 15.4699 11.0941 15.4699 11.659 15.2864C12.8007 14.9155 13.6957 14.0204 14.0667 12.8788C14.2502 12.3139 14.2502 11.6159 14.2502 10.22V8.31112M14.2502 8.31112C13.5323 8.6021 12.6453 8.91817 11.5898 9.29513L10.0093 9.85961C9.50983 10.038 9.2601 10.1272 9.00027 10.1272C8.74045 10.1272 8.49072 10.038 7.99125 9.85961L6.4107 9.29513C3.11021 8.11636 1.45996 7.52698 1.45996 6.4699C1.45996 5.41283 3.11021 4.82345 6.41071 3.64468L7.99125 3.0802C8.49072 2.90181 8.74045 2.81262 9.00027 2.81262C9.2601 2.81262 9.50983 2.90181 10.0093 3.0802L11.5898 3.64468C14.8903 4.82345 16.5406 5.41283 16.5406 6.4699C16.5406 7.18894 15.7773 7.69219 14.2502 8.31112Z" stroke="#2D264B" stroke-width="1.5"/>
<path d="M7.87559 2.52416L6.17461 3.13171C4.56395 3.70694 3.29808 4.15903 2.4392 4.60332C1.60908 5.03273 0.897461 5.58469 0.897461 6.46991V11.7287C0.897461 12.0394 1.18953 12.2824 1.50019 12.2824C1.81085 12.2824 2.06269 12.0306 2.06269 11.7199V8.12646C1.8465 7.99527 1.64654 7.85211 1.4755 7.69249C1.12616 7.36647 0.897461 6.97174 0.897461 6.46991C0.897461 6.15925 1.18953 5.90741 1.50019 5.90741C1.55533 5.90741 1.60734 5.91534 1.6556 5.93012L1.50024 6.00003L1.61772 6.46995H2.02251C2.02251 6.6418 2.13601 6.91307 2.95614 7.33731C3.73918 7.74237 4.93245 8.1699 6.59994 8.76544L8.18049 9.32993C8.71677 9.52146 8.86045 9.56473 9.00032 9.56473C9.14019 9.56473 9.28386 9.52146 9.82015 9.32993L11.4535 8.74657C12.4895 8.37657 13.3462 8.07061 14.039 7.78985C14.797 7.48264 15.3084 7.22539 15.6255 6.98192C15.9301 6.74814 15.9781 6.58951 15.9781 6.46995H17.1031C17.1031 6.46993 17.1031 6.46996 17.1031 6.46995C17.1031 5.58473 16.3915 5.03273 15.5613 4.60332C14.7025 4.15903 13.4366 3.70694 11.8259 3.1317L10.125 2.52416C9.69761 2.37113 9.35968 2.25012 9.00027 2.25012C8.64086 2.25012 8.30293 2.37113 7.87559 2.52416Z" fill="#2D264B"/>
<path d="M17.1007 6.55857C17.0776 6.97068 16.8941 7.31099 16.623 7.59588C16.8971 7.30933 17.078 6.97124 17.1007 6.55857Z" fill="#2D264B"/>
</svg>
