<svg width="656" height="720" viewBox="0 0 656 720" fill="none" xmlns="http://www.w3.org/2000/svg">
<g opacity="0.1">
<path d="M403.262 627.349L250.856 678.151V855.957L403.262 805.155V627.349Z" fill="#747373"/>
<path d="M155.602 147.271L3.19589 198.073V375.88L155.602 325.078V147.271Z" fill="#747373"/>
<path d="M278.797 387.31L126.391 438.112V615.919L278.797 565.117V387.31Z" fill="#747373"/>
<path d="M31.1387 -92.7676L-121.267 -41.9657V135.841L31.1387 85.039V-92.7676Z" fill="#747373"/>
<path d="M278.797 565.117L126.391 615.919L252.126 678.151L404.531 627.349L278.797 565.117Z" fill="#A8A5A5"/>
<path d="M31.1364 85.0384L-121.269 135.84L4.46542 198.073L156.871 147.271L31.1364 85.0384Z" fill="#A8A5A5"/>
<path d="M154.334 325.078L1.92801 375.88L127.663 438.112L280.068 387.31L154.334 325.078Z" fill="#A8A5A5"/>
<path d="M234.996 683.822L82.5904 734.624V912.43L234.996 861.628V683.822Z" fill="#747373"/>
<path d="M110.529 443.782L-41.8764 494.584V672.391L110.529 621.589V443.782Z" fill="#747373"/>
<path d="M110.531 621.589L-41.8747 672.391L83.86 734.624L236.266 683.822L110.531 621.589Z" fill="#A8A5A5"/>
<path d="M-13.9359 381.55L-166.342 432.352L-40.6068 494.584L111.799 443.782L-13.9359 381.55Z" fill="#A8A5A5"/>
</g>
</svg>
