<svg width="36" height="36" viewBox="0 0 36 36" fill="none" xmlns="http://www.w3.org/2000/svg">
<rect width="36" height="36" rx="18" fill="#051425"/>
<path d="M22.528 12.4673C22.2338 12.1757 21.7589 12.1778 21.4673 12.472C21.1757 12.7662 21.1778 13.2411 21.472 13.5327L23.235 15.28C23.9505 15.9891 24.4413 16.4772 24.7734 16.8907C24.8813 17.0251 24.9655 17.1434 25.0309 17.25L10 17.25C9.58579 17.25 9.25 17.5858 9.25 18C9.25 18.4142 9.58579 18.75 10 18.75L25.0309 18.75C24.9655 18.8566 24.8813 18.9749 24.7734 19.1093C24.4413 19.5228 23.9505 20.0109 23.235 20.72L21.472 22.4673C21.1778 22.7589 21.1757 23.2338 21.4673 23.528C21.7589 23.8222 22.2338 23.8243 22.528 23.5327L24.3227 21.7539C24.9987 21.084 25.5511 20.5364 25.9429 20.0485C26.3504 19.5412 26.6453 19.0263 26.7241 18.4082C26.7414 18.2726 26.75 18.1363 26.75 18C26.75 17.8637 26.7414 17.7274 26.7241 17.5918C26.6453 16.9737 26.3504 16.4588 25.9429 15.9515C25.5511 15.4636 24.9987 14.916 24.3227 14.2461L22.528 12.4673Z" fill="white"/>
</svg>
