<svg width="15" height="17" viewBox="0 0 15 17" fill="none" xmlns="http://www.w3.org/2000/svg">
<path d="M6.02617 7.34744H6.02606C5.805 7.34745 5.593 7.43528 5.43669 7.5916C5.28039 7.74792 5.19258 7.95993 5.19259 8.18099C5.19259 8.40205 5.28041 8.61406 5.43673 8.77037C5.59305 8.92668 5.80505 9.0145 6.02612 9.0145C6.24718 9.0145 6.45919 8.92668 6.6155 8.77037C6.77182 8.61406 6.85964 8.40205 6.85965 8.18099C6.85965 7.95993 6.77184 7.74792 6.61554 7.5916C6.45923 7.43528 6.24723 7.34745 6.02617 7.34744ZM8.9983 7.34744C8.81627 7.33201 8.63383 7.3719 8.47486 7.46189C8.31588 7.55188 8.18778 7.68777 8.10732 7.85178C8.02686 8.01578 7.99779 8.20026 8.02392 8.38106C8.05006 8.56186 8.13017 8.73056 8.25377 8.86507C8.37737 8.99958 8.53871 9.09364 8.71666 9.13493C8.89461 9.17623 9.08088 9.16283 9.25109 9.0965C9.4213 9.03016 9.56751 8.91399 9.6706 8.76317C9.77368 8.61235 9.82882 8.43393 9.82881 8.25125C9.83368 8.13736 9.81605 8.02363 9.77693 7.91656C9.73782 7.80948 9.67799 7.71117 9.60086 7.62723C9.52373 7.54329 9.43081 7.47538 9.32742 7.42737C9.22403 7.37936 9.11219 7.3522 8.9983 7.34744ZM12.9557 0.515591H2.04435C1.82459 0.51611 1.60709 0.559912 1.40426 0.644495C1.20143 0.729078 1.01725 0.852785 0.862235 1.00855C0.70722 1.16432 0.584406 1.3491 0.500807 1.55233C0.417207 1.75557 0.37446 1.97328 0.375005 2.19304V13.2022C0.374469 13.4219 0.417223 13.6396 0.500827 13.8429C0.58443 14.0461 0.707245 14.2309 0.862259 14.3866C1.01727 14.5424 1.20145 14.6661 1.40427 14.7507C1.6071 14.8352 1.82459 14.8791 2.04435 14.8796H11.2783L10.8467 13.3731L11.889 14.3421L12.8743 15.2541L14.625 16.8013V2.19304C14.6256 1.97328 14.5828 1.75557 14.4992 1.55233C14.4156 1.3491 14.2928 1.16432 14.1378 1.00855C13.9828 0.852785 13.7986 0.729078 13.5958 0.644495C13.3929 0.559912 13.1754 0.51611 12.9557 0.515591ZM9.81257 11.1501V11.1502C9.81257 11.1502 9.51937 10.8 9.27507 10.4906C9.86533 10.3516 10.3874 10.0084 10.749 9.52157C10.456 9.7166 10.1419 9.87776 9.81257 10.002C9.43376 10.1637 9.03757 10.2812 8.63184 10.3521C7.93446 10.4805 7.21926 10.4778 6.52289 10.344C6.11404 10.264 5.71335 10.1468 5.32582 9.9939C5.12157 9.91533 4.92297 9.82282 4.7314 9.71703C4.70694 9.7007 4.68259 9.69258 4.65814 9.67629C4.64589 9.67021 4.63485 9.66194 4.62557 9.65189C4.47907 9.57048 4.3975 9.51345 4.3975 9.51345C4.74603 9.99002 5.25007 10.3299 5.82254 10.4743C5.57834 10.7838 5.27702 11.1501 5.27702 11.1501C4.79332 11.1632 4.31384 11.0571 3.88077 10.8413C3.4477 10.6254 3.07432 10.3065 2.79349 9.91243C2.81993 8.26164 3.22085 6.63841 3.96601 5.16514C4.62179 4.6501 5.42129 4.35135 6.25413 4.31014L6.3355 4.40789C5.55196 4.60177 4.82078 4.96597 4.19401 5.47458C4.19401 5.47458 4.37318 5.37688 4.67441 5.23844C5.25975 4.97123 5.88361 4.79811 6.52295 4.72548C6.56854 4.71599 6.61488 4.71052 6.66142 4.70914C7.20707 4.63806 7.75928 4.63261 8.30622 4.69291C9.16638 4.79112 9.99902 5.05666 10.7572 5.47458C10.1622 4.99024 9.47116 4.63776 8.72976 4.44044L8.8437 4.31022C9.67655 4.3514 10.4761 4.65015 11.1318 5.16522C11.877 6.63845 12.278 8.26168 12.3044 9.91246C12.0213 10.3061 11.6463 10.6247 11.212 10.8404C10.7777 11.0561 10.2973 11.1624 9.81257 11.1501Z" fill="#9500DC"/>
</svg>
