<svg width="17" height="16" viewBox="0 0 17 16" fill="none" xmlns="http://www.w3.org/2000/svg">
<path d="M8.49992 0.515709C4.12596 0.515709 0.583253 4.05842 0.583253 8.43237C0.582355 10.0943 1.10481 11.7143 2.07651 13.0626C3.0482 14.4108 4.41978 15.4189 5.99667 15.9437C6.3925 16.0126 6.54054 15.7751 6.54054 15.5669C6.54054 15.3792 6.53025 14.7562 6.53025 14.0928C4.54159 14.4593 4.027 13.6083 3.86867 13.1626C3.77921 12.9346 3.39367 12.2324 3.05721 12.044C2.78013 11.8959 2.38429 11.5294 3.04692 11.5199C3.67075 11.5096 4.11567 12.0938 4.2645 12.3313C4.977 13.5283 6.11542 13.1919 6.56984 12.9845C6.6395 12.4699 6.84692 12.1239 7.07492 11.926C5.31346 11.7281 3.47284 11.0449 3.47284 8.01675C3.47284 7.15542 3.77921 6.44371 4.2843 5.88875C4.20513 5.69083 3.92804 4.87938 4.36346 3.79083C4.36346 3.79083 5.02609 3.58342 6.54054 4.60308C7.18501 4.42422 7.85088 4.33419 8.51971 4.3355C9.19263 4.3355 9.86555 4.42417 10.4989 4.60229C12.0125 3.57313 12.676 3.79163 12.676 3.79163C13.1114 4.88017 12.8343 5.69163 12.7551 5.88954C13.2594 6.44371 13.5666 7.14592 13.5666 8.01675C13.5666 11.0552 11.7165 11.7281 9.955 11.926C10.2416 12.173 10.4894 12.648 10.4894 13.3906C10.4894 14.449 10.4791 15.3001 10.4791 15.5677C10.4791 15.7751 10.6279 16.0221 11.0238 15.9429C12.5952 15.4123 13.9608 14.4023 14.9282 13.055C15.8956 11.7077 16.4161 10.091 16.4166 8.43237C16.4166 4.05842 12.8739 0.515709 8.49992 0.515709Z" fill="black"/>
</svg>
