<svg width="19" height="20" viewBox="0 0 19 20" fill="none" xmlns="http://www.w3.org/2000/svg">
<g clip-path="url(#clip0_914_7622)">
<path d="M18.9897 10.61C18.9897 9.83153 18.9251 9.26349 18.7852 8.67442H9.68896V12.1878H15.0282C14.9206 13.0609 14.3393 14.3759 13.0475 15.2594L13.0294 15.3771L15.9055 17.5543L16.1047 17.5737C17.9347 15.9222 18.9897 13.4922 18.9897 10.61Z" fill="#4285F4"/>
<path d="M9.68929 19.867C12.3051 19.867 14.5011 19.0255 16.1051 17.5738L13.0479 15.2595C12.2298 15.8171 11.1317 16.2063 9.68929 16.2063C7.1273 16.2063 4.95284 14.5548 4.17771 12.2721L4.06409 12.2815L1.07353 14.5432L1.03442 14.6494C2.62759 17.7421 5.90007 19.867 9.68929 19.867Z" fill="#34A853"/>
<path d="M4.17765 12.2723C3.97313 11.6832 3.85476 11.052 3.85476 10.3998C3.85476 9.7476 3.97313 9.11647 4.16689 8.52739L4.16147 8.40194L1.13344 6.10395L1.03437 6.15C0.377746 7.43337 0.000976562 8.87454 0.000976562 10.3998C0.000976562 11.9251 0.377746 13.3662 1.03437 14.6496L4.17765 12.2723Z" fill="#FBBC05"/>
<path d="M9.68929 4.59308C11.5085 4.59308 12.7357 5.36098 13.4354 6.0027L16.1696 3.3939C14.4904 1.86861 12.3051 0.932384 9.68929 0.932384C5.90007 0.932384 2.62759 3.05727 1.03442 6.14992L4.16695 8.52731C4.95284 6.24463 7.1273 4.59308 9.68929 4.59308Z" fill="#EB4335"/>
</g>
<defs>
<clipPath id="clip0_914_7622">
<rect width="19" height="19" fill="white" transform="translate(0 0.932373)"/>
</clipPath>
</defs>
</svg>
