<svg width="15" height="13" viewBox="0 0 15 13" fill="none" xmlns="http://www.w3.org/2000/svg">
<path d="M13.1499 3.7574C13.7065 3.33992 14.2075 2.83895 14.5972 2.25447C14.0962 2.47713 13.5117 2.64412 12.9272 2.69979C13.5396 2.33797 13.9849 1.78133 14.2075 1.08553C13.6509 1.41951 13.0107 1.67 12.3706 1.80916C11.814 1.22469 11.0625 0.890705 10.2275 0.890705C8.61328 0.890705 7.30518 2.19881 7.30518 3.81307C7.30518 4.03572 7.33301 4.25838 7.38867 4.48104C4.96729 4.34188 2.79639 3.17293 1.34912 1.41951C1.09863 1.83699 0.959473 2.33797 0.959473 2.89461C0.959473 3.89656 1.46045 4.78719 2.26758 5.316C1.79443 5.28817 1.32129 5.17684 0.931641 4.95418V4.98201C0.931641 6.40145 1.93359 7.57039 3.26953 7.84871C3.04688 7.90438 2.76855 7.96004 2.51807 7.96004C2.32324 7.96004 2.15625 7.93221 1.96143 7.90438C2.32324 9.07332 3.40869 9.90828 4.68896 9.93612C3.68701 10.7154 2.43457 11.1886 1.0708 11.1886C0.820312 11.1886 0.597656 11.1607 0.375 11.1329C1.65527 11.9679 3.18604 12.441 4.85596 12.441C10.2275 12.441 13.1499 8.01571 13.1499 4.14705C13.1499 4.00789 13.1499 3.89656 13.1499 3.7574Z" fill="#03B3FF"/>
</svg>
