<svg width="34" height="34" viewBox="0 0 34 34" fill="none" xmlns="http://www.w3.org/2000/svg">
<path d="M14.3626 15.0589H14.3624C13.9668 15.0589 13.5875 15.2161 13.3078 15.4958C13.0281 15.7756 12.8709 16.1549 12.8709 16.5505C12.871 16.9461 13.0281 17.3255 13.3078 17.6052C13.5876 17.8849 13.9669 18.0421 14.3625 18.0421C14.7581 18.0421 15.1375 17.8849 15.4172 17.6052C15.6969 17.3255 15.8541 16.9461 15.8541 16.5505C15.8541 16.1549 15.697 15.7756 15.4173 15.4958C15.1376 15.2161 14.7582 15.0589 14.3626 15.0589ZM19.6812 15.0589C19.3554 15.0313 19.029 15.1027 18.7445 15.2637C18.46 15.4248 18.2308 15.6679 18.0868 15.9614C17.9428 16.2549 17.8908 16.585 17.9375 16.9085C17.9843 17.2321 18.1277 17.534 18.3488 17.7747C18.57 18.0154 18.8587 18.1837 19.1772 18.2576C19.4956 18.3315 19.8289 18.3075 20.1335 18.1888C20.4381 18.0701 20.6998 17.8622 20.8842 17.5923C21.0687 17.3224 21.1674 17.0032 21.1673 16.6763C21.1761 16.4725 21.1445 16.2689 21.0745 16.0773C21.0045 15.8857 20.8974 15.7098 20.7594 15.5596C20.6214 15.4094 20.4551 15.2879 20.2701 15.2019C20.0851 15.116 19.885 15.0674 19.6812 15.0589ZM26.7628 2.8335H7.23725C6.844 2.83443 6.45478 2.91281 6.09183 3.06417C5.72888 3.21553 5.39929 3.4369 5.12189 3.71564C4.8445 3.99438 4.62473 4.32504 4.47513 4.68872C4.32553 5.0524 4.24903 5.44199 4.25001 5.83524V25.5358C4.24905 25.929 4.32556 26.3186 4.47516 26.6823C4.62477 27.046 4.84454 27.3766 5.12194 27.6553C5.39933 27.9341 5.72891 28.1554 6.09186 28.3068C6.4548 28.4581 6.84401 28.5365 7.23725 28.5375H23.7612L22.9889 25.8417L24.8539 27.5757L26.6171 29.2077L29.75 31.9763V5.83524C29.751 5.44199 29.6745 5.0524 29.5249 4.68872C29.3753 4.32504 29.1555 3.99438 28.8781 3.71564C28.6007 3.4369 28.2711 3.21553 27.9082 3.06417C27.5452 2.91281 27.156 2.83443 26.7628 2.8335ZM21.1383 21.8637V21.8638C21.1383 21.8638 20.6136 21.2372 20.1764 20.6835C21.2327 20.4348 22.167 19.8206 22.814 18.9495C22.2897 19.2985 21.7276 19.5869 21.1383 19.8091C20.4604 20.0985 19.7514 20.3087 19.0254 20.4357C17.7775 20.6655 16.4976 20.6606 15.2515 20.4212C14.5199 20.278 13.8028 20.0683 13.1094 19.7947C12.7439 19.6541 12.3885 19.4885 12.0457 19.2992C12.0019 19.27 11.9583 19.2555 11.9146 19.2263C11.8926 19.2154 11.8729 19.2007 11.8563 19.1827C11.5941 19.037 11.4482 18.9349 11.4482 18.9349C12.0718 19.7877 12.9738 20.3959 13.9982 20.6543C13.5612 21.2081 13.022 21.8637 13.022 21.8637C12.1565 21.8871 11.2984 21.6973 10.5235 21.311C9.74851 20.9248 9.08035 20.354 8.57783 19.6489C8.62514 16.6949 9.34257 13.7901 10.676 11.1537C11.8495 10.2321 13.2802 9.69749 14.7705 9.62373L14.9162 9.79866C13.514 10.1456 12.2056 10.7973 11.084 11.7075C11.084 11.7075 11.4046 11.5326 11.9437 11.2849C12.9911 10.8067 14.1075 10.497 15.2516 10.367C15.3332 10.35 15.4161 10.3402 15.4994 10.3377C16.4758 10.2106 17.464 10.2008 18.4427 10.3087C19.9819 10.4844 21.4719 10.9596 22.8287 11.7075C21.764 10.8408 20.5273 10.21 19.2006 9.8569L19.4045 9.62388C20.8949 9.69757 22.3256 10.2322 23.4991 11.1539C24.8326 13.7902 25.5501 16.6949 25.5974 19.6489C25.0908 20.3534 24.4197 20.9234 23.6426 21.3094C22.8654 21.6954 22.0057 21.8857 21.1383 21.8637Z" fill="white"/>
</svg>
