<svg width="34" height="20" viewBox="0 0 34 20" fill="none" xmlns="http://www.w3.org/2000/svg">
<g clip-path="url(#clip0_1126_3653)">
<path d="M19.1712 9.99532C19.1712 15.3256 14.8796 19.6466 9.58579 19.6466C4.29201 19.6466 0 15.3246 0 9.99532C0 4.66605 4.29169 0.34375 9.58579 0.34375C14.8799 0.34375 19.1712 4.66507 19.1712 9.99532ZM29.6868 9.99532C29.6868 15.0126 27.541 19.0815 24.8939 19.0815C22.2469 19.0815 20.101 15.0126 20.101 9.99532C20.101 4.97804 22.2466 0.909114 24.8936 0.909114C27.5407 0.909114 29.6865 4.97674 29.6865 9.99532H29.6868ZM33.9879 9.99532C33.9879 14.4896 33.2334 18.1351 32.3023 18.1351C31.3712 18.1351 30.6169 14.4906 30.6169 9.99532C30.6169 5.50009 31.3715 1.85551 32.3023 1.85551C33.233 1.85551 33.9879 5.49976 33.9879 9.99532Z" fill="white"/>
</g>
<defs>
<clipPath id="clip0_1126_3653">
<rect width="34" height="19.3123" fill="white" transform="translate(0 0.34375)"/>
</clipPath>
</defs>
</svg>
