<svg width="34" height="34" viewBox="0 0 34 34" fill="none" xmlns="http://www.w3.org/2000/svg">
<path d="M31.3964 8.01256C30.3149 8.49096 29.168 8.80515 27.9936 8.94473C29.2314 8.20443 30.1578 7.03933 30.6003 5.66656C29.4386 6.3579 28.165 6.8424 26.8376 7.10448C25.946 6.15047 24.7641 5.51776 23.4758 5.30472C22.1875 5.09169 20.8648 5.31026 19.7136 5.92645C18.5623 6.54265 17.6468 7.52195 17.1095 8.7121C16.5722 9.90226 16.4432 11.2366 16.7424 12.5076C14.3867 12.3896 12.0821 11.7774 9.97825 10.7108C7.87443 9.64429 6.01844 8.14721 4.53076 6.31681C4.00417 7.22128 3.72744 8.24947 3.72892 9.29606C3.72892 11.3502 4.77442 13.165 6.36392 14.2275C5.42327 14.1979 4.50332 13.9438 3.68076 13.4866V13.5602C3.68104 14.9283 4.15445 16.2542 5.02071 17.3131C5.88697 18.3719 7.09277 19.0987 8.43367 19.37C7.56046 19.6066 6.64486 19.6415 5.75617 19.472C6.13424 20.6496 6.8711 21.6794 7.8636 22.4174C8.85609 23.1553 10.0545 23.5644 11.2911 23.5874C10.0621 24.5526 8.65493 25.2661 7.15001 25.6871C5.64509 26.1082 4.07194 26.2284 2.52051 26.0411C5.22875 27.7828 8.38139 28.7074 11.6013 28.7044C22.4998 28.7044 28.4597 19.676 28.4597 11.8461C28.4597 11.5911 28.4526 11.3332 28.4413 11.0811C29.6013 10.2426 30.6025 9.20401 31.3978 8.01398L31.3964 8.01256Z" fill="#F8F8F8"/>
</svg>
