<svg width="34" height="34" viewBox="0 0 34 34" fill="none" xmlns="http://www.w3.org/2000/svg">
<path d="M30.5189 9.20558C31.1663 11.7301 31.1663 17.0001 31.1663 17.0001C31.1663 17.0001 31.1663 22.2701 30.5189 24.7946C30.1591 26.19 29.1065 27.2879 27.7734 27.6591C25.3523 28.3334 16.9997 28.3334 16.9997 28.3334C16.9997 28.3334 8.65126 28.3334 6.22592 27.6591C4.88717 27.2822 3.83601 26.1858 3.48042 24.7946C2.83301 22.2701 2.83301 17.0001 2.83301 17.0001C2.83301 17.0001 2.83301 11.7301 3.48042 9.20558C3.84026 7.81016 4.89284 6.71225 6.22592 6.34108C8.65126 5.66675 16.9997 5.66675 16.9997 5.66675C16.9997 5.66675 25.3523 5.66675 27.7734 6.34108C29.1122 6.71791 30.1633 7.81441 30.5189 9.20558ZM14.1663 21.9584L22.6663 17.0001L14.1663 12.0417V21.9584Z" fill="#F8F8F8"/>
</svg>
