<svg width="45" height="53" viewBox="0 0 45 53" fill="none" xmlns="http://www.w3.org/2000/svg">
<path d="M31.6395 0C28.7628 0.194257 25.4005 1.99196 23.4412 4.33292C21.6538 6.45658 20.1834 9.61079 20.7567 12.6761C23.8998 12.7716 27.1474 10.9311 29.0292 8.5506C30.7896 6.33476 32.1217 3.2003 31.6395 0Z" fill="#877F7F"/>
<path d="M42.9279 17.9272C40.2651 14.6067 36.523 12.6797 32.9889 12.6797C28.3234 12.6797 26.3499 14.9009 23.1084 14.9009C19.7662 14.9009 17.227 12.6861 13.1922 12.6861C9.22899 12.6861 5.00891 15.0949 2.33316 19.2141C-1.4285 25.0145 -0.784762 35.9203 5.31127 45.2094C7.49284 48.5332 10.4059 52.2709 14.2164 52.3032C17.6074 52.3355 18.5632 50.1402 23.1572 50.1175C27.7512 50.0917 28.6225 52.3323 32.007 52.2967C35.8207 52.2677 38.8931 48.1258 41.0747 44.8021C42.6385 42.4192 43.2205 41.2196 44.4332 38.5295C35.6126 35.1896 34.1983 22.7157 42.9279 17.9272Z" fill="#877F7F"/>
</svg>
