<svg width="45" height="45" viewBox="0 0 45 45" fill="none" xmlns="http://www.w3.org/2000/svg">
<path d="M22.1764 0C9.99617 0 0.000488281 9.99568 0.000488281 22.1759C0.000488281 32.5699 7.29388 42.0116 16.9789 44.3518V37.0151C16.0193 37.2253 15.1361 37.2314 14.1592 36.9434C12.8487 36.5566 11.7838 35.6836 10.9934 34.3524C10.4895 33.5024 9.59654 32.5807 8.66499 32.6484L8.43658 30.0598C10.4509 29.8872 12.1936 31.2871 13.228 33.025C13.6875 33.7978 14.2164 34.2509 14.8952 34.4513C15.5513 34.6445 16.2558 34.5518 17.0767 34.2618C17.2828 32.6183 18.0357 32.0031 18.6045 31.1368V31.1355C12.8284 30.274 10.5264 27.2096 9.61278 24.7909C8.40207 21.5794 9.05175 17.5672 11.1927 15.0318C11.2343 14.9823 11.3094 14.8531 11.2803 14.7627C10.2987 11.7975 11.4948 9.34464 11.5388 9.08443C12.6717 9.41942 12.8558 8.7474 16.4599 10.937L17.0828 11.3113C17.3434 11.4666 17.2615 11.378 17.522 11.3583C19.0268 10.9496 20.6131 10.7239 22.1761 10.7036C23.7509 10.7239 25.327 10.9496 26.8941 11.3749L27.0957 11.3952C27.0782 11.3925 27.1506 11.3823 27.272 11.3099C31.7742 8.58295 31.6124 9.47424 32.8197 9.08172C32.8634 9.34227 34.0437 11.8351 33.0725 14.7627C32.9416 15.1661 36.9757 18.8602 34.7397 24.7899C33.8261 27.2096 31.5244 30.274 25.7483 31.1355V31.1368C26.4887 32.2653 27.3783 32.8656 27.3736 35.1936V44.3518C37.0589 42.0116 44.352 32.5699 44.352 22.1759C44.3523 9.99568 34.3567 0 22.1764 0Z" fill="#877F7F"/>
</svg>
