<svg width="67" height="40" viewBox="0 0 67 40" fill="none" xmlns="http://www.w3.org/2000/svg">
<path d="M57.9827 14.5032V6.30579H53.8353V14.5032H45.5405V18.6019H53.8353V26.7993H57.9827V18.6019H66.2776V14.5032H57.9827Z" fill="#877F7F"/>
<path d="M20.8159 15.7643V23.6464H32.0977C30.4507 28.2338 26.0161 31.5285 20.8159 31.5285C14.2199 31.5285 8.85224 26.2239 8.85224 19.7053C8.85224 13.1868 14.2199 7.88213 20.8159 7.88213C23.6752 7.88213 26.4269 8.89499 28.5644 10.7355L33.8045 4.79234C30.2154 1.70254 25.6054 0 20.8159 0C9.8213 0 0.876465 8.83981 0.876465 19.7053C0.876465 30.5709 9.8213 39.4107 20.8159 39.4107C31.8105 39.4107 40.7554 30.5709 40.7554 19.7053V15.7643H20.8159Z" fill="#877F7F"/>
</svg>
