<svg width="81" height="33" viewBox="0 0 81 33" fill="none" xmlns="http://www.w3.org/2000/svg">
<path d="M19.963 0H12.8456C12.4986 0 12.2172 0.279482 12.2172 0.624191V18.7866C12.2172 18.7866 12.0607 20.8708 10.172 20.8708C8.28335 20.8708 8.14839 18.7866 8.14839 18.7866V14.62C8.14839 14.2753 7.86699 13.9958 7.51993 13.9958H1.06156C0.714498 13.9958 0.433105 14.2753 0.433105 14.62V19.8839C0.433105 19.8839 0.837677 27.1514 10.3667 27.1514C20.2605 27.1514 20.5598 18.2024 20.5598 18.2024L20.5914 0.625284C20.592 0.280106 20.3105 0 19.963 0Z" fill="#877F7F"/>
<path fill-rule="evenodd" clip-rule="evenodd" d="M41.2741 17.3962C41.2786 17.6594 41.0678 17.8765 40.8027 17.8765L29.1897 17.8763C28.9039 17.8763 28.6794 18.1276 28.7225 18.4081C29.0342 20.4397 30.1431 22.3198 32.0494 22.3198C33.012 22.3198 34.0562 21.9025 34.6525 21.1455C34.7412 21.0329 34.8771 20.9672 35.0212 20.9672H40.2349C40.5699 20.9672 40.7945 21.3033 40.6718 21.6127C39.2008 25.3226 35.7937 27.0546 32.0495 27.0546C26.5873 27.0546 22.4438 23.383 22.4438 16.9092C22.4438 11.305 26.0225 6.15387 31.4844 6.15387C38.1194 6.15387 41.1473 10.1623 41.2741 17.3962ZM34.9321 13.4918C34.713 11.9961 33.5714 10.8298 32.0509 10.8298C29.2131 10.8298 28.8186 13.1936 28.7637 13.8507C28.7562 13.9417 28.8286 14.0185 28.9205 14.0185H34.464C34.7476 14.0185 34.9729 13.7707 34.9321 13.4918Z" fill="#877F7F"/>
<path fill-rule="evenodd" clip-rule="evenodd" d="M61.2135 17.3962C61.2181 17.6595 61.0072 17.8765 60.7422 17.8765L49.1292 17.8764C48.8434 17.8764 48.6189 18.1276 48.6619 18.4082C48.9736 20.4398 50.0826 22.3198 51.9888 22.3198C52.9515 22.3198 53.9957 21.9026 54.5919 21.1456C54.6807 21.0329 54.8166 20.9672 54.9607 20.9672H60.1744C60.5093 20.9672 60.734 21.3033 60.6113 21.6128C59.1402 25.3227 55.7332 27.0546 51.989 27.0546C46.5267 27.0546 42.3833 23.383 42.3833 16.9092C42.3833 11.305 45.9619 6.1539 51.4238 6.1539C58.0588 6.1539 61.0867 10.1623 61.2135 17.3962ZM54.8686 13.4918C54.6496 11.9961 53.508 10.8298 51.9874 10.8298C49.1496 10.8298 48.7551 13.1936 48.7002 13.8507C48.6927 13.9417 48.7651 14.0185 48.857 14.0185H54.4005C54.6841 14.0185 54.9094 13.7707 54.8686 13.4918Z" fill="#877F7F"/>
<path fill-rule="evenodd" clip-rule="evenodd" d="M68.2154 8.76298C68.2154 8.76298 69.4456 6.15433 73.4742 6.15433C74.8468 6.15433 80.8759 6.46611 80.8759 16.3959C80.8759 26.3259 73.377 26.4448 73.377 26.4448C73.377 26.4448 69.9052 26.6456 68.4096 23.8361V31.6777C68.4096 31.9362 68.1986 32.1458 67.9383 32.1458H62.1623C61.9019 32.1458 61.6909 31.9362 61.6909 31.6777V7.10466C61.6909 6.84609 61.9019 6.63652 62.1623 6.63652H67.7441C68.0044 6.63652 68.2154 6.84609 68.2154 7.10466V8.76298ZM68.1099 16.3783C68.1099 18.8166 68.8982 20.7935 71.1851 20.7935C73.4723 20.7935 74.2603 18.8166 74.2603 16.3783C74.2603 13.9385 73.3492 11.9615 71.1851 11.9615C69.0212 11.9615 68.1099 13.9383 68.1099 16.3783Z" fill="#877F7F"/>
<path d="M16.5446 -3.05176e-05L16.5119 18.2022C16.5119 18.2022 16.2517 25.9298 8.27393 27.0221C8.91715 27.1056 9.61254 27.1512 10.3653 27.1512C20.2591 27.1512 20.5584 18.2022 20.5584 18.2022L20.59 0.625253C20.5906 0.280075 20.3091 -3.05176e-05 19.9615 -3.05176e-05H16.5446V-3.05176e-05Z" fill="#877F7F"/>
<path d="M30.0269 26.8756C30.6761 26.9937 31.3523 27.0546 32.0505 27.0546C35.7947 27.0546 39.2017 25.3226 40.6728 21.6127C40.7955 21.3033 40.5708 20.9672 40.2359 20.9672H36.8562C35.7675 24.3982 33.1371 26.3123 30.0269 26.8756Z" fill="#877F7F"/>
<path d="M37.2327 17.8765H40.8036C41.0686 17.8765 41.2795 17.6594 41.2749 17.3962C41.1481 10.1622 38.1202 6.15384 31.4852 6.15384C30.8818 6.15384 30.3028 6.22 29.7476 6.33954C34.9071 7.2237 37.2327 11.2572 37.2327 17.8765Z" fill="#877F7F"/>
<path d="M57.1703 17.8765H60.7412C61.0063 17.8765 61.2171 17.6594 61.2126 17.3962C61.0858 10.1622 58.0579 6.15384 51.4227 6.15384C50.8193 6.15384 50.2403 6.22 49.6851 6.33954C54.8449 7.2237 57.1703 11.2572 57.1703 17.8765Z" fill="#877F7F"/>
<path d="M49.9634 26.8756C50.6126 26.9937 51.2888 27.0546 51.987 27.0546C55.7312 27.0546 59.1383 25.3226 60.6093 21.6127C60.732 21.3033 60.5074 20.9671 60.1724 20.9671H56.7927C55.704 24.3982 53.0736 26.3122 49.9634 26.8756Z" fill="#877F7F"/>
<path d="M73.475 6.1543C72.6783 6.1543 71.9927 6.25729 71.4027 6.42098C73.6683 7.05797 76.8304 9.20425 76.8304 16.3959C76.8304 23.1563 73.3552 25.3686 71.1362 26.0925C72.329 26.5042 73.3779 26.4446 73.3779 26.4446C73.3779 26.4446 80.8767 26.3258 80.8767 16.3959C80.8767 6.46608 74.8476 6.1543 73.475 6.1543Z" fill="#877F7F"/>
</svg>
