<svg width="53" height="34" viewBox="0 0 53 34" fill="none" xmlns="http://www.w3.org/2000/svg">
<path fill-rule="evenodd" clip-rule="evenodd" d="M53.0005 6.56823H43.6684C33.7737 -2.18941 19.2791 -2.18941 9.38438 6.56823H0.0522461C0.0522461 6.56823 2.17018 9.19552 3.03059 11.6544C1.1774 13.9448 0.0522461 16.8416 0.0522461 20.0415C0.0522461 27.4855 5.97584 33.5148 13.2893 33.5148C17.6245 33.5148 21.4632 31.3591 23.879 28.0581L26.6588 33.5148L29.2069 28.0918C31.6227 31.3591 35.4283 33.5148 39.7635 33.5148C47.077 33.5148 53.0005 27.4855 53.0005 20.0415C53.0005 16.8416 51.8754 13.9448 50.0222 11.6544C50.8826 9.19552 53.0005 6.56823 53.0005 6.56823ZM13.2907 30.1465C7.83043 30.1465 3.36291 25.5993 3.36291 20.0416C3.36291 14.4838 7.83043 9.9366 13.2907 9.9366C18.751 9.9366 23.2185 14.4838 23.2185 20.0416C23.2185 25.5993 18.751 30.1465 13.2907 30.1465ZM29.8347 20.0416C29.8347 25.5993 34.3022 30.1465 39.7625 30.1465C45.2228 30.1465 49.6903 25.5993 49.6903 20.0416C49.6903 14.4838 45.2228 9.9366 39.7625 9.9366C34.3022 9.9366 29.8347 14.4838 29.8347 20.0416Z" fill="#877F7F"/>
<path fill-rule="evenodd" clip-rule="evenodd" d="M6.67139 20.0415C6.67139 16.3262 9.6398 13.3048 13.2899 13.3048C16.94 13.3048 19.9085 16.3262 19.9085 20.0415C19.9085 23.7567 16.94 26.7781 13.2899 26.7781C9.6398 26.7781 6.67139 23.7567 6.67139 20.0415ZM9.98112 20.0415C9.98112 21.8975 11.467 23.4099 13.2904 23.4099C15.1138 23.4099 16.5997 21.8975 16.5997 20.0415C16.5997 18.1856 15.1138 16.6732 13.2904 16.6732C11.467 16.6732 9.98112 18.1856 9.98112 20.0415Z" fill="#877F7F"/>
<path fill-rule="evenodd" clip-rule="evenodd" d="M33.147 20.0415C33.147 16.3262 36.1154 13.3048 39.7655 13.3048C43.4156 13.3048 46.384 16.3262 46.384 20.0415C46.384 23.7567 43.4156 26.7781 39.7655 26.7781C36.1154 26.7781 33.147 23.7567 33.147 20.0415ZM36.4556 20.0414C36.4556 21.8974 37.9381 23.4097 39.7648 23.4097C41.5915 23.4097 43.0741 21.8974 43.0741 20.0414C43.0741 18.1855 41.5915 16.6731 39.7648 16.6731C37.9381 16.6731 36.4556 18.1855 36.4556 20.0414Z" fill="#877F7F"/>
<path d="M13.2879 21.7257C14.2018 21.7257 14.9426 20.9717 14.9426 20.0416C14.9426 19.1114 14.2018 18.3574 13.2879 18.3574C12.3741 18.3574 11.6333 19.1114 11.6333 20.0416C11.6333 20.9717 12.3741 21.7257 13.2879 21.7257Z" fill="#877F7F"/>
<path d="M39.7635 21.7257C40.6774 21.7257 41.4182 20.9717 41.4182 20.0415C41.4182 19.1114 40.6774 18.3574 39.7635 18.3574C38.8497 18.3574 38.1089 19.1114 38.1089 20.0415C38.1089 20.9717 38.8497 21.7257 39.7635 21.7257Z" fill="#877F7F"/>
</svg>
