<svg width="100" height="100" viewBox="0 0 100 100" fill="none" xmlns="http://www.w3.org/2000/svg">
<path d="M36.0441 43.2005C32.4396 39.6158 30.2082 34.6518 30.2082 29.1666C30.2082 23.6814 32.4396 18.7174 36.0441 15.1328C33.9689 14.1138 31.6345 13.5416 29.1665 13.5416C20.5371 13.5416 13.5415 20.5372 13.5415 29.1666C13.5415 37.7961 20.5371 44.7916 29.1665 44.7916C31.6345 44.7916 33.9689 44.2194 36.0441 43.2005Z" fill="#2D264B"/>
<path d="M34.3748 29.1666C34.3748 20.5372 41.3704 13.5416 49.9998 13.5416C58.6293 13.5416 65.6248 20.5372 65.6248 29.1666C65.6248 37.7961 58.6293 44.7916 49.9998 44.7916C41.3704 44.7916 34.3748 37.7961 34.3748 29.1666Z" fill="#2D264B"/>
<path d="M63.9555 15.1328C67.5601 18.7174 69.7915 23.6814 69.7915 29.1666C69.7915 34.6518 67.5601 39.6158 63.9555 43.2005C66.0308 44.2194 68.3652 44.7916 70.8332 44.7916C79.4626 44.7916 86.4582 37.7961 86.4582 29.1666C86.4582 20.5372 79.4626 13.5416 70.8332 13.5416C68.3652 13.5416 66.0308 14.1138 63.9555 15.1328Z" fill="#2D264B"/>
<path d="M21.8748 66.6666C21.8748 58.0372 28.8704 51.0416 37.4998 51.0416H62.4998C71.1293 51.0416 78.1248 58.0372 78.1248 66.6666C78.1248 75.2961 71.1293 82.2916 62.4998 82.2916H37.4998C28.8704 82.2916 21.8748 75.2961 21.8748 66.6666Z" fill="#2D264B"/>
<path d="M1.0415 62.5C1.0415 53.8705 8.03705 46.875 16.6665 46.875H37.4998C26.5692 46.875 17.7082 55.736 17.7082 66.6666C17.7082 70.9369 19.0606 74.8913 21.3605 78.125H16.6665C8.03705 78.125 1.0415 71.1294 1.0415 62.5Z" fill="#2D264B"/>
<path d="M82.2915 66.6666C82.2915 70.9369 80.9391 74.8913 78.6392 78.125H83.3332C91.9626 78.125 98.9582 71.1294 98.9582 62.5C98.9582 53.8705 91.9626 46.875 83.3332 46.875H62.4998C73.4305 46.875 82.2915 55.736 82.2915 66.6666Z" fill="#2D264B"/>
</svg>
