<svg width="101" height="100" viewBox="0 0 101 100" fill="none" xmlns="http://www.w3.org/2000/svg">
<path d="M39.5835 27.9846C43.4899 27.9846 46.8618 25.3916 48.0228 21.7008C48.8234 19.1552 52.1766 19.1552 52.9772 21.7008C54.1382 25.3916 57.5101 27.9846 61.4165 27.9846C62.6251 27.9846 63.5271 28.7279 63.8938 29.8937C64.2627 31.0667 63.9613 32.299 62.9141 33.0849C59.8168 35.4095 58.5679 39.4746 59.724 43.1502C60.1509 44.5073 59.64 45.6692 58.7443 46.3415C57.8633 47.0027 56.76 47.1 55.7492 46.3415C52.6263 43.9977 48.3737 43.9976 45.2508 46.3415C44.24 47.1 43.1367 47.0027 42.2556 46.3415C41.36 45.6692 40.8491 44.5073 41.276 43.1502C42.4321 39.4746 41.1832 35.4095 38.0859 33.0849C37.0387 32.299 36.7373 31.0667 37.1062 29.8937C37.4729 28.7279 38.3749 27.9846 39.5835 27.9846Z" fill="#2D264B"/>
<path fill-rule="evenodd" clip-rule="evenodd" d="M50.5 66.6666C67.7589 66.6666 81.75 52.6755 81.75 35.4166C81.75 18.1577 67.7589 4.16663 50.5 4.16663C33.2411 4.16663 19.25 18.1577 19.25 35.4166C19.25 52.6755 33.2411 66.6666 50.5 66.6666ZM58.9393 19.8255C56.3039 11.447 44.6961 11.447 42.0607 19.8255C41.685 21.02 40.6497 21.7346 39.5835 21.7346C30.7957 21.7346 27.6163 33.0418 34.3343 38.0837C35.26 38.7785 35.6945 40.0652 35.314 41.2749C34.0228 45.3799 35.6788 49.2199 38.504 51.3402C41.3438 53.4715 45.5153 53.9573 49.0024 51.3402C49.9025 50.6647 51.0975 50.6647 51.9976 51.3402C55.4847 53.9573 59.6562 53.4715 62.496 51.3402C65.3212 49.2199 66.9772 45.3799 65.686 41.2749C65.3055 40.0652 65.74 38.7785 66.6657 38.0837C73.3837 33.0418 70.2043 21.7346 61.4165 21.7346C60.3503 21.7346 59.315 21.02 58.9393 19.8255Z" fill="#2D264B"/>
<path d="M50.5 72.9166C60.1044 72.9166 68.8655 69.306 75.5 63.368V82.8278C75.5 89.3453 75.5 92.6041 73.4209 93.534C71.3418 94.4639 68.7974 92.3431 63.7086 88.1015L59.797 84.8412C55.3606 81.1433 53.1423 79.2944 50.5 79.2944C47.8577 79.2944 45.6394 81.1433 41.203 84.8412L37.2914 88.1015C32.2026 92.3431 29.6582 94.4639 27.5791 93.534C25.5 92.6041 25.5 89.3453 25.5 82.8278V63.368C32.1345 69.306 40.8956 72.9166 50.5 72.9166Z" fill="#2D264B"/>
</svg>
