<svg width="100" height="100" viewBox="0 0 100 100" fill="none" xmlns="http://www.w3.org/2000/svg">
<path d="M93.6203 30.6846C96.1667 17.4071 84.5099 5.75034 71.2324 8.29675L33.1114 15.6078C24.8246 17.1971 18.1973 23.4698 16.0918 31.6205C11.888 47.8937 26.9798 62.7664 43.1843 58.001C43.6318 57.8694 44.0476 58.2852 43.916 58.7327C39.1507 74.9373 54.0233 90.0292 70.2967 85.8254C78.4474 83.7199 84.7201 77.0925 86.3094 68.8057L93.6203 30.6846Z" fill="#2D264B"/>
<path d="M20.6023 68.0566C21.8227 66.8362 21.8227 64.8576 20.6023 63.6372C19.3819 62.4168 17.4032 62.4168 16.1828 63.6372L10.2903 69.5298C9.0699 70.7501 9.0699 72.7288 10.2903 73.9492C11.5107 75.1696 13.4893 75.1696 14.7097 73.9492L20.6023 68.0566Z" fill="#2D264B"/>
<path d="M35.3337 66.5835C36.554 67.8039 36.554 69.7825 35.3337 71.0029L29.4411 76.8955C28.2207 78.1159 26.2421 78.1159 25.0217 76.8955C23.8013 75.6751 23.8013 73.6964 25.0217 72.476L30.9142 66.5835C32.1346 65.3631 34.1133 65.3631 35.3337 66.5835Z" fill="#2D264B"/>
<path d="M38.2799 85.7343C39.5003 84.5139 39.5003 82.5353 38.2799 81.3149C37.0595 80.0945 35.0809 80.0945 33.8605 81.3149L27.968 87.2074C26.7476 88.4278 26.7476 90.4065 27.968 91.6269C29.1884 92.8472 31.167 92.8472 32.3874 91.6269L38.2799 85.7343Z" fill="#2D264B"/>
</svg>
