<svg width="764" height="573" viewBox="0 0 764 573" fill="none" xmlns="http://www.w3.org/2000/svg">
<path d="M395.229 262.274L262.99 306.354V460.633L395.229 416.553V262.274Z" fill="#9500DC"/>
<path d="M502.123 470.551L369.884 514.63V668.909L502.123 624.829V470.551Z" fill="#9500DC"/>
<path d="M287.234 53.9976L154.995 98.0773V252.356L287.234 208.277V53.9976Z" fill="#9500DC"/>
<path d="M287.234 208.276L154.995 252.356L264.092 306.354L396.332 262.274L287.234 208.276Z" fill="#8EF54B"/>
<path d="M394.127 416.553L261.888 460.633L370.986 514.63L503.225 470.551L394.127 416.553Z" fill="#8EF54B"/>
<path d="M179.239 0L46.9999 44.0797L156.097 98.0773L288.336 53.9976L179.239 0Z" fill="#8EF54B"/>
<path d="M249.229 311.274L116.99 355.354V509.633L249.229 465.553V311.274Z" fill="#9500DC"/>
<path d="M356.123 519.551L223.884 563.63V717.909L356.123 673.829V519.551Z" fill="#9500DC"/>
<path d="M141.234 102.998L8.99533 147.077V301.356L141.234 257.277V102.998Z" fill="#9500DC"/>
<path d="M141.234 257.276L8.99529 301.356L118.092 355.354L250.332 311.274L141.234 257.276Z" fill="#8EF54B"/>
<path d="M248.127 465.553L115.888 509.633L224.986 563.63L357.225 519.551L248.127 465.553Z" fill="#8EF54B"/>
<path d="M33.239 49L-99.0001 93.0797L10.0971 147.077L142.336 102.998L33.239 49Z" fill="#8EF54B"/>
</svg>
