<svg width="157" height="315" viewBox="0 0 157 315" fill="none" xmlns="http://www.w3.org/2000/svg">
<path fill-rule="evenodd" clip-rule="evenodd" d="M88.8746 142.76C88.7823 142.827 88.686 142.891 88.5932 142.95C87.3072 143.726 85.3437 144.659 83.1125 145.863C77.6239 148.818 70.6419 153.367 67.5393 160.933C65.4538 166.015 65.0803 172.469 68.14 180.756C69.5644 184.597 72.5499 187.194 76.221 188.855C81.4372 191.223 88.0365 191.679 93.0299 191.369C95.0323 191.243 98.9076 190.273 101.609 189.835C61.7484 232.024 94.9703 306.961 155.748 297.528C156.47 297.417 156.961 296.738 156.854 296.02C156.739 295.302 156.065 294.806 155.343 294.917C96.4164 304.059 64.5981 230.432 104.865 190.276C105.6 189.542 105.711 188.893 105.674 188.506C105.616 187.941 105.32 187.45 104.632 187.173C104.118 186.968 102.959 186.948 101.486 187.18C98.8417 187.592 94.8874 188.605 92.8626 188.733C88.2498 189.021 82.1359 188.64 77.3156 186.453C74.2924 185.083 71.7878 182.996 70.618 179.84C67.8517 172.355 68.1004 166.525 69.9833 161.93C72.8333 154.984 79.3303 150.903 84.3648 148.185C87.0536 146.739 89.358 145.661 90.6211 144.781C91.4679 144.192 91.9354 143.591 92.0997 143.091C92.1812 142.834 92.2768 142.268 91.7752 141.685C91.2862 141.119 88.4983 139.248 88.0699 138.887C76.3888 128.979 75.9376 114.116 83.135 101.286C95.198 79.7848 113.398 76.4677 125.699 84.6797C136.457 91.8591 142.511 107.625 136.117 127.259C135.855 127.856 135.59 128.457 135.321 129.054C134.414 131.075 132.159 136.38 131.929 137.151C131.606 138.225 132.446 138.73 132.575 138.799C132.891 138.959 133.405 139.122 133.993 138.665C134.049 138.623 134.311 138.367 134.63 137.736C136.27 134.471 137.581 131.28 138.596 128.183C139.976 125.05 141.326 121.912 142.853 118.843C149.125 106.255 156.229 93.8251 166.58 84.1261C178.386 73.0572 198.22 62.9612 215.926 61.6638C224.596 61.0291 232.749 62.5058 239.131 67.1337C245.512 71.7542 250.071 79.5109 251.674 91.3036C251.771 92.0269 252.438 92.5305 253.162 92.4342C253.885 92.3378 254.389 91.6701 254.292 90.9468C252.565 78.2606 247.545 69.9693 240.68 64.996C233.819 60.0187 225.059 58.3485 215.733 59.0333C197.449 60.3709 176.963 70.7713 164.773 82.1992C154.548 91.7838 147.397 103.944 141.142 116.358C142.677 100.853 136.454 88.682 127.166 82.4847C113.83 73.5797 93.9091 76.687 80.8299 99.9964C72.9956 113.959 73.6464 130.114 86.3612 140.902C86.6132 141.111 87.9507 142.092 88.8746 142.76Z" fill="#8EF54B"/>
</svg>
