<svg width="145" height="208" viewBox="0 0 145 208" fill="none" xmlns="http://www.w3.org/2000/svg">
<path fill-rule="evenodd" clip-rule="evenodd" d="M71.4872 158.942C71.4181 159.032 71.3442 159.121 71.2723 159.204C70.2638 160.318 68.6513 161.775 66.8604 163.57C62.4529 167.978 57.0731 174.342 56.2761 182.48C55.7396 187.947 57.2372 194.236 62.5499 201.294C65.0181 204.563 68.6243 206.193 72.618 206.728C78.2946 207.497 84.7464 206.036 89.4401 204.305C91.3216 203.608 94.7546 201.565 97.2163 200.369C71.1652 252.236 124.526 314.46 180.027 287.954C180.686 287.64 180.962 286.849 180.653 286.192C180.337 285.537 179.548 285.256 178.888 285.57C125.077 311.265 73.437 249.891 100.462 199.855C100.954 198.941 100.874 198.287 100.728 197.927C100.51 197.403 100.085 197.018 99.3465 196.95C98.7955 196.902 97.6793 197.216 96.3347 197.862C93.9207 199.016 90.4246 201.123 88.5221 201.828C84.1867 203.429 78.2215 204.822 72.9757 204.113C69.6864 203.67 66.6876 202.391 64.6601 199.705C59.8589 193.331 58.4212 187.675 58.9038 182.733C59.6367 175.26 64.6863 169.484 68.7271 165.433C70.8869 163.276 72.7841 161.581 73.741 160.375C74.3828 159.568 74.6577 158.857 74.6714 158.332C74.6755 158.062 74.6045 157.493 73.9563 157.078C73.3252 156.676 70.1172 155.686 69.6032 155.463C55.5671 149.332 50.8625 135.226 54.0679 120.867C59.4412 96.8064 75.9199 88.3976 90.0624 92.7269C102.43 96.511 112.76 109.871 112.28 130.514C112.201 131.161 112.119 131.813 112.033 132.463C111.746 134.659 111.111 140.389 111.112 141.193C111.112 142.314 112.062 142.557 112.205 142.586C112.553 142.648 113.093 142.656 113.524 142.05C113.566 141.993 113.743 141.673 113.867 140.977C114.499 137.378 114.838 133.945 114.92 130.686C115.341 127.289 115.732 123.896 116.312 120.518C118.701 106.658 121.932 92.7106 129.058 80.4454C137.184 66.4501 153.279 51.0788 169.864 44.7465C177.987 41.6462 186.22 40.7169 193.663 43.3151C201.102 45.9064 207.699 52.0252 212.624 62.8592C212.925 63.5243 213.709 63.8147 214.374 63.5145C215.039 63.2143 215.329 62.43 215.029 61.7649C209.728 50.1108 202.537 43.6123 194.532 40.8223C186.529 38.0274 177.659 38.9458 168.923 42.2825C151.796 48.8194 135.165 64.6695 126.774 79.1192C119.736 91.2384 116.382 104.941 113.959 118.629C110.972 103.338 101.514 93.4687 90.8358 90.2031C75.5032 85.5073 57.3162 94.2099 51.4894 120.295C47.9992 135.92 53.2665 151.206 68.5458 157.884C68.8474 158.013 70.4104 158.568 71.4872 158.942Z" fill="#8EF54B"/>
</svg>
