<svg width="26" height="26" viewBox="0 0 26 26" fill="none" xmlns="http://www.w3.org/2000/svg">
<path fill-rule="evenodd" clip-rule="evenodd" d="M11.5723 9.76832C9.15884 7.78441 7.20322 5.4218 5.73365 2.66919C5.43974 2.12093 4.75585 1.9118 4.20194 2.20571C3.65367 2.49962 3.44451 3.18355 3.73842 3.73746C5.35494 6.75007 7.4915 9.33877 10.1367 11.5149C10.6172 11.9105 11.3349 11.8427 11.7306 11.3622C12.1263 10.8762 12.0528 10.164 11.5723 9.76832Z" fill="#8EF54B"/>
<path fill-rule="evenodd" clip-rule="evenodd" d="M10.2855 2.04182C10.4098 4.3253 10.5229 6.60878 10.6642 8.89226C10.7038 9.514 11.2407 9.98878 11.8625 9.94921C12.4842 9.90965 12.959 9.37269 12.9194 8.75095C12.7781 6.47313 12.665 4.19531 12.5407 1.91184C12.5068 1.29179 11.9698 0.81418 11.3481 0.849224C10.7264 0.884267 10.2459 1.41839 10.2855 2.04182Z" fill="#8EF54B"/>
<path fill-rule="evenodd" clip-rule="evenodd" d="M18.6767 2.50534C17.2297 4.68708 15.5907 6.69923 13.9402 8.73401C13.5446 9.2201 13.618 9.9323 14.1041 10.3223C14.5902 10.718 15.3024 10.6445 15.6924 10.1584C17.388 8.07272 19.0724 5.99836 20.5646 3.75445C20.9093 3.23445 20.7624 2.5336 20.2424 2.18882C19.728 1.84404 19.0215 1.98534 18.6767 2.50534Z" fill="#8EF54B"/>
<path fill-rule="evenodd" clip-rule="evenodd" d="M24.2817 10.6162C20.3591 10.7914 16.1935 10.7971 12.2709 10.5484C11.6491 10.5144 11.1122 10.9836 11.0726 11.611C11.0331 12.2327 11.5078 12.7697 12.1296 12.8092C16.1313 13.0579 20.3818 13.0523 24.3835 12.8771C25.0053 12.8488 25.4913 12.3175 25.463 11.6958C25.4348 11.074 24.9035 10.5879 24.2817 10.6162Z" fill="#8EF54B"/>
<path fill-rule="evenodd" clip-rule="evenodd" d="M10.1339 11.3339C12.553 14.2957 15.057 17.2009 17.3009 20.2983C17.6683 20.8014 18.3748 20.9144 18.8835 20.547C19.3866 20.1796 19.4996 19.473 19.1322 18.97C16.86 15.8387 14.3279 12.8996 11.8805 9.90392C11.4848 9.42349 10.7726 9.35003 10.2922 9.74568C9.80608 10.1413 9.73824 10.8535 10.1339 11.3339Z" fill="#8EF54B"/>
<path fill-rule="evenodd" clip-rule="evenodd" d="M10.8663 12.1933C11.4993 15.2794 11.6746 18.2299 11.7198 21.3555C11.7254 21.9773 12.2398 22.4746 12.8615 22.469C13.4889 22.4577 13.9863 21.949 13.975 21.3216C13.9298 18.049 13.7433 14.9685 13.082 11.7355C12.952 11.1251 12.3585 10.7294 11.7424 10.8594C11.132 10.9837 10.7363 11.5829 10.8663 12.1933Z" fill="#8EF54B"/>
<path fill-rule="evenodd" clip-rule="evenodd" d="M10.9683 11.9447C9.13703 15.6074 8.19312 19.6769 6.23181 23.2604C5.93225 23.803 6.13568 24.4926 6.68394 24.7921C7.23221 25.0917 7.91617 24.8882 8.21573 24.3456C10.1883 20.7395 11.1435 16.6473 12.9918 12.9565C13.2687 12.3969 13.0427 11.7186 12.4887 11.436C11.9292 11.1591 11.2509 11.3852 10.9683 11.9447Z" fill="#8EF54B"/>
<path fill-rule="evenodd" clip-rule="evenodd" d="M11.9762 11.1136C8.33054 11.7579 4.69054 12.0518 1.02228 12.487C0.400536 12.5605 -0.0403331 13.1201 0.0331451 13.7418C0.106623 14.3636 0.666241 14.8044 1.28798 14.731C4.99581 14.2958 8.68102 13.9905 12.3719 13.3405C12.9823 13.2275 13.3949 12.6396 13.2875 12.0292C13.1745 11.4131 12.5923 11.0005 11.9762 11.1136Z" fill="#8EF54B"/>
<path fill-rule="evenodd" clip-rule="evenodd" d="M14.5131 9.39562C13.7613 9.36171 13.0491 9.31082 12.3144 9.20343C11.6926 9.113 11.1217 9.54256 11.0313 10.1587C10.9409 10.7747 11.3704 11.3513 11.9865 11.4417C12.8004 11.5604 13.5861 11.6169 14.4113 11.6508C15.033 11.6791 15.5643 11.1986 15.5869 10.5712C15.6152 9.94951 15.1348 9.42388 14.5131 9.39562Z" fill="#8EF54B"/>
</svg>
