<svg width="126" height="141" viewBox="0 0 126 141" fill="none" xmlns="http://www.w3.org/2000/svg">
<path fill-rule="evenodd" clip-rule="evenodd" d="M104.464 65.0864C110.448 56.0883 115.898 46.4729 124.534 39.7074C125.046 39.3029 125.139 38.5608 124.737 38.044C124.333 37.5312 123.591 37.4383 123.074 37.8403C114.237 44.7646 108.614 54.5669 102.491 63.7748C102.127 64.3175 102.277 65.0561 102.822 65.4168C103.365 65.7816 104.099 65.629 104.464 65.0864Z" fill="#8EF54B"/>
<path fill-rule="evenodd" clip-rule="evenodd" d="M90.6799 57.539C89.856 53.0378 89.8537 48.6909 91.251 44.3197C91.451 43.6955 91.1064 43.0301 90.4853 42.8287C89.8617 42.6313 89.1939 42.9771 88.9964 43.5973C87.4764 48.3503 87.4569 53.0699 88.3513 57.9628C88.4677 58.6074 89.0841 59.0354 89.7286 58.9156C90.3702 58.7996 90.7988 58.1796 90.6799 57.539Z" fill="#8EF54B"/>
<path fill-rule="evenodd" clip-rule="evenodd" d="M57.0712 47.4139C53.4186 43.2841 51.5391 38.5034 51.4968 32.9665C51.4915 32.3135 50.9573 31.7862 50.3027 31.7932C49.6507 31.7963 49.1236 32.3318 49.1289 32.9847C49.177 39.1133 51.253 44.41 55.297 48.9826C55.7288 49.4734 56.4802 49.5162 56.9684 49.085C57.4595 48.65 57.5055 47.9007 57.0712 47.4139Z" fill="#8EF54B"/>
<path fill-rule="evenodd" clip-rule="evenodd" d="M22.606 88.5861C23.0303 89.9401 23.576 91.2587 24.2511 92.5134C24.5514 93.0724 25.2509 94.1633 26.0566 94.7723C26.913 95.4246 27.8726 95.5988 28.776 95.0599C29.9749 94.3435 30.4499 93.4671 30.536 92.6142C30.6198 91.7935 30.318 90.92 29.6946 90.0955C28.5026 88.5204 26.0576 87.1012 24.4995 86.5495C24.1669 85.1805 23.9646 83.7817 23.8889 82.3732C23.3253 71.882 31.9287 62.4417 44.7727 59.1037C49.2689 57.9362 55.7863 60.1212 62.3326 63.2485C72.526 68.1165 82.7218 75.4387 85.771 77.4855C86.5251 77.9892 87.0256 78.2042 87.1418 78.2215C87.7076 78.3152 88.0335 78.056 88.2242 77.8515C88.4965 77.5529 88.6017 77.2441 88.626 76.957C88.6567 76.5676 88.5375 76.1564 88.1905 75.7806C87.9976 75.575 87.6865 75.3564 87.3389 75.1483C87.0963 75.0065 86.8064 74.8908 86.6665 74.7353C85.7732 73.7351 84.9461 72.6868 84.1062 71.6418C81.2772 68.1381 78.9024 64.4168 76.6428 60.5218C69.4621 48.1466 61.5582 35.5729 59.1946 21.219C59.0883 20.5752 58.4799 20.1353 57.834 20.243C57.1907 20.3468 56.7537 20.9559 56.8579 21.604C59.2667 36.244 67.2721 49.0891 74.5944 61.7103C76.5169 65.0231 78.5217 68.2142 80.8053 71.2563C75.5606 67.7853 68.1714 63.1856 61.044 60.0502C54.7055 57.2612 48.5476 55.6781 44.1768 56.8127C30.1066 60.4692 20.905 71.0104 21.5246 82.5001C21.5914 83.7294 21.7435 84.9565 21.9871 86.1629C11.8659 85.5851 3.2497 92.5814 1.87934 102.704C1.79048 103.353 2.24595 103.949 2.89271 104.037C3.54199 104.122 4.1379 103.669 4.22677 103.02C5.4618 93.8985 13.4133 87.6869 22.606 88.5861ZM25.4836 89.5894C25.7372 90.203 26.0227 90.8031 26.3369 91.3933C26.507 91.7078 26.852 92.2838 27.2797 92.7048C27.3807 92.8021 27.56 92.9208 27.6442 92.9739C27.9547 92.7834 28.1569 92.6086 28.1795 92.3765C28.2095 92.0874 28.0239 91.8135 27.8058 91.5247C27.259 90.799 26.362 90.1099 25.4836 89.5894Z" fill="#8EF54B"/>
</svg>
