<svg width="26" height="25" viewBox="0 0 26 25" fill="none" xmlns="http://www.w3.org/2000/svg">
<path fill-rule="evenodd" clip-rule="evenodd" d="M11.5726 9.76832C9.15909 7.78441 7.20346 5.4218 5.7339 2.66919C5.43998 2.12093 4.75609 1.9118 4.20218 2.20571C3.65392 2.49962 3.44475 3.18355 3.73866 3.73746C5.35518 6.75007 7.49174 9.33877 10.137 11.5149C10.6174 11.9105 11.3352 11.8427 11.7308 11.3622C12.1265 10.8762 12.053 10.164 11.5726 9.76832Z" fill="#EAFF6D"/>
<path fill-rule="evenodd" clip-rule="evenodd" d="M10.2855 2.04182C10.4098 4.3253 10.5229 6.60878 10.6642 8.89226C10.7038 9.514 11.2407 9.98878 11.8625 9.94921C12.4842 9.90965 12.959 9.37269 12.9194 8.75095C12.7781 6.47313 12.665 4.19531 12.5407 1.91184C12.5068 1.29179 11.9698 0.81418 11.3481 0.849224C10.7264 0.884267 10.2459 1.41839 10.2855 2.04182Z" fill="#EAFF6D"/>
<path fill-rule="evenodd" clip-rule="evenodd" d="M18.6767 2.50534C17.2297 4.68708 15.5907 6.69923 13.9402 8.73401C13.5446 9.2201 13.618 9.9323 14.1041 10.3223C14.5902 10.718 15.3024 10.6445 15.6924 10.1584C17.388 8.07272 19.0724 5.99836 20.5646 3.75445C20.9093 3.23445 20.7624 2.5336 20.2424 2.18882C19.728 1.84404 19.0215 1.98534 18.6767 2.50534Z" fill="#EAFF6D"/>
<path fill-rule="evenodd" clip-rule="evenodd" d="M24.2817 10.6162C20.3591 10.7914 16.1935 10.7971 12.2709 10.5484C11.6491 10.5144 11.1122 10.9836 11.0726 11.611C11.0331 12.2327 11.5078 12.7697 12.1296 12.8092C16.1313 13.0579 20.3818 13.0523 24.3835 12.8771C25.0053 12.8488 25.4913 12.3175 25.463 11.6958C25.4348 11.074 24.9035 10.5879 24.2817 10.6162Z" fill="#EAFF6D"/>
<path fill-rule="evenodd" clip-rule="evenodd" d="M10.1339 11.3339C12.553 14.2957 15.057 17.2009 17.3009 20.2983C17.6683 20.8014 18.3748 20.9144 18.8835 20.547C19.3866 20.1796 19.4996 19.473 19.1322 18.97C16.86 15.8387 14.3279 12.8996 11.8805 9.90392C11.4848 9.42349 10.7726 9.35003 10.2922 9.74568C9.80608 10.1413 9.73824 10.8535 10.1339 11.3339Z" fill="#EAFF6D"/>
<path fill-rule="evenodd" clip-rule="evenodd" d="M10.8665 12.1933C11.4996 15.2794 11.6748 18.2299 11.72 21.3555C11.7257 21.9773 12.24 22.4746 12.8618 22.469C13.4892 22.4577 13.9865 21.949 13.9752 21.3216C13.93 18.049 13.7435 14.9685 13.0822 11.7355C12.9522 11.1251 12.3587 10.7294 11.7426 10.8594C11.1322 10.9837 10.7365 11.5829 10.8665 12.1933Z" fill="#EAFF6D"/>
<path fill-rule="evenodd" clip-rule="evenodd" d="M10.9686 11.9447C9.13728 15.6074 8.19336 19.6769 6.23206 23.2604C5.93249 23.803 6.13593 24.4926 6.68419 24.7921C7.23245 25.0917 7.91641 24.8882 8.21597 24.3456C10.1886 20.7395 11.1438 16.6473 12.992 12.9565C13.269 12.3969 13.0429 11.7186 12.489 11.436C11.9294 11.1591 11.2512 11.3852 10.9686 11.9447Z" fill="#EAFF6D"/>
<path fill-rule="evenodd" clip-rule="evenodd" d="M11.9764 11.1136C8.33078 11.7579 4.69078 12.0518 1.02252 12.487C0.400781 12.5605 -0.040089 13.1201 0.0333893 13.7418C0.106868 14.3636 0.666485 14.8044 1.28822 14.731C4.99605 14.2958 8.68126 13.9905 12.3721 13.3405C12.9826 13.2275 13.3952 12.6396 13.2878 12.0292C13.1747 11.4131 12.5925 11.0005 11.9764 11.1136Z" fill="#EAFF6D"/>
<path fill-rule="evenodd" clip-rule="evenodd" d="M14.5133 9.39562C13.7616 9.36171 13.0494 9.31082 12.3146 9.20343C11.6929 9.113 11.122 9.54256 11.0316 10.1587C10.9411 10.7747 11.3707 11.3513 11.9867 11.4417C12.8007 11.5604 13.5863 11.6169 14.4115 11.6508C15.0333 11.6791 15.5646 11.1986 15.5872 10.5712C15.6154 9.94951 15.1351 9.42388 14.5133 9.39562Z" fill="#EAFF6D"/>
</svg>
